<?xml version="1.0"?>
<svg version="1.1" xmlns="http://www.w3.org/2000/svg" width="400px" height="200px" style="border: dashed 2px #aaa"><path fill="#0010ed" d="M51.7,105c0,0.6-0.3,1.1-1,1.5l-21.2,13.6l20.9,13.4c0.8,0.5,1.2,1.1,1.2,1.7c0,0.4-0.1,0.7-0.4,1.2l-3.9,6.2c-0.5,0.8-1.1,1.3-1.7,1.3c-0.5,0-1.1-0.3-1.8-0.8l-28.2-18.8c-0.9-0.6-1.4-1.3-1.4-2.7l0-2.6c0-1.3,0.7-2.1,1.7-2.7l29-18.7c0.6-0.4,1.2-0.6,1.6-0.6c0.5,0,0.9,0.3,1.3,1l3.5,5.9c0.2,0.4,0.4,0.7,0.4,1.1z M126.95,146.8c0,2-0.5,2.8-2.4,3.8c-5.5,2.8-14.8,4.6-22.4,4.6c-20.8,0-32.6-14.4-32.6-35.6c0-20.9,13.5-36.1,33.9-36.1c6.4,0,12.3,1.1,18.3,3.8c1.1,0.5,1.4,1.1,1.4,1.8c0,0.4-0.2,0.8-0.3,1.2l-2.3,6c-0.4,1-0.8,1.4-1.5,1.4c-0.4,0-0.9-0.2-1.4-0.4c-3.3-1.4-9-2.9-13.6-2.9c-5.4,0-10.6,2-14.1,5.7c-4.2,4.4-6.6,10.9-6.6,19.1c0,15.5,7.3,25.2,19.3,25.2c4.1,0,8.6-0.6,11.3-1.7l0-19.1l-8.9,0c-1.4,0-2.2-0.5-2.2-2.2l0-6.1c0-1.6,0.8-2,2.3-2l19.4,0c1.7,0,2.4,0.5,2.4,2.3l0,31.2z M194.8,133.8c0,16.2-13.1,20.2-27.3,20.2l-18.6,0c-2.1,0-2.6-0.8-2.6-2.9l0-63.7c0-2.1,0.9-2.6,3-2.6l15,0c16.1,0,25.1,4.9,25.1,16.9c0,7-4,13.1-11.3,14.7l0,0.1c9.5,0.7,16.7,7.2,16.7,17.3z M176.8,103.2c0-6.5-5.1-8.6-12.1-8.6l-5.6,0l0,18.6l5.2,0c7.3,0,12.5-1.9,12.5-10z M181.7,133.4c0-4.7-2.1-7.7-5.3-9.3c-3.1-1.5-6.5-1.8-10.7-1.8l-6.6,0l0,21.8l7.4,0c3.5,0,6.9-0.3,9.4-1.3c3.5-1.5,5.8-4.6,5.8-9.4z M285.05,151.3c0.1,1.7-0.4,2.7-2.3,2.7l-8.1,0c-2.1,0-2.5-1-2.6-3.3l-1.4-40.6l-0.2,0l-17,42.1c-0.6,1.6-1.6,1.8-2.7,1.8l-3.5,0c-1.5,0-2.4-0.3-3.1-1.9l-18.9-42l-0.2,0l-0.9,41.4c0,2.2-0.9,2.5-2.7,2.5l-6.8,0c-1.9,0-2.7-0.7-2.6-2.6l2.5-63.9c0.1-2.1,0.8-2.7,2.4-2.7l5.9,0c2,0,2.7,0.7,3.4,2.2l23.1,49.4l0.2,0l21.1-49.4c0.6-1.5,1.4-2.2,3.2-2.2l5.9,0c1.6,0,2.2,0.6,2.3,2.2z M331,84.5c0,0.4-0.2,1-0.4,1.7l-20.7,67c-0.5,1.6-1,2-2.7,2l-7.1,0c-1,0-1.5-0.3-1.5-1.1c0-0.3,0.1-0.8,0.3-1.3l20.9-67.1c0.6-1.8,1.1-2.2,3-2.2l6.5,0c1.1,0,1.7,0.2,1.7,1z M381.05,121.7c0,1.3-0.8,2.1-1.8,2.7l-28.9,18.7c-0.7,0.4-1.2,0.7-1.6,0.7c-0.5,0-1-0.3-1.4-1l-3.4-5.9c-0.2-0.4-0.4-0.8-0.4-1.2c0-0.5,0.3-1.1,1-1.5l21.1-13.5l-20.8-13.5c-0.8-0.5-1.2-1-1.2-1.6c0-0.4,0.1-0.8,0.4-1.2l3.8-6.3c0.5-0.9,1.1-1.3,1.7-1.3c0.5,0,1.1,0.2,1.8,0.7l28.2,19c0.9,0.6,1.5,1.2,1.5,2.6l0,2.6z"/><path fill="#" d=""/></svg>
